<svg xmlns="http://www.w3.org/2000/svg" width="21.633" height="21.633" viewBox="0 0 21.633 21.633">
  <g id="Instagram" transform="translate(-1340.939 -4360.478)">
    <path id="instagram-2" data-name="instagram" d="M1342.767,4362.306a6.172,6.172,0,0,0-1.828,4.417v9.141a6.242,6.242,0,0,0,6.246,6.247h9.141a6.242,6.242,0,0,0,6.246-6.247v-9.141a6.242,6.242,0,0,0-6.246-6.246h-9.141A6.174,6.174,0,0,0,1342.767,4362.306Zm13.762.3a3.9,3.9,0,0,1,3.91,3.911v9.547a3.9,3.9,0,0,1-3.91,3.91h-9.547a3.9,3.9,0,0,1-3.91-3.91v-9.547a3.9,3.9,0,0,1,3.91-3.911Zm-.025,2.057a1.32,1.32,0,1,0,1.879,0,1.237,1.237,0,0,0-1.879,0Zm-8.582,2.792a5.4,5.4,0,1,0,3.834-1.6A5.384,5.384,0,0,0,1347.921,4367.459Zm6.119,1.549a3.2,3.2,0,1,1-4.57,0,3.187,3.187,0,0,1,4.57,0Z" fill="#aeb0b5"/>
  </g>
</svg>
