<svg xmlns="http://www.w3.org/2000/svg" width="22.648" height="18.434" viewBox="0 0 22.648 18.434">
  <g id="Twitter" transform="translate(-1407.431 -4362.61)">
    <path id="twitter-2" data-name="twitter" d="M1427.743,4367.231l.051.61a13.846,13.846,0,0,1-3.428,8.887q-3.378,4.063-9.826,4.316a12.686,12.686,0,0,1-3.783-.559,13.81,13.81,0,0,1-3.326-1.523q.558.051,1.117.051a9.442,9.442,0,0,0,3.1-.508,8.425,8.425,0,0,0,2.641-1.473,4.638,4.638,0,0,1-4.316-3.25,3.54,3.54,0,0,0,.863.1,4.627,4.627,0,0,0,1.219-.152,4.673,4.673,0,0,1-2.666-1.6,4.478,4.478,0,0,1-1.041-2.971v-.051a4.626,4.626,0,0,0,2.082.559,4.539,4.539,0,0,1-1.473-1.625,4.764,4.764,0,0,1,.051-4.57,12.973,12.973,0,0,0,4.189,3.4,13.723,13.723,0,0,0,5.408,1.473,3.69,3.69,0,0,1-.152-1.066,4.655,4.655,0,0,1,1.371-3.3,4.6,4.6,0,0,1,3.25-1.371,4.661,4.661,0,0,1,3.453,1.473,9.138,9.138,0,0,0,2.945-1.117,4.7,4.7,0,0,1-2.031,2.589,10.213,10.213,0,0,0,2.641-.761,10,10,0,0,1-2.336,2.437Z" fill="#aeb0b5"/>
  </g>
</svg>
